<?xml version="1.0" standalone="no"?>
<!DOCTYPE svg PUBLIC "-//W3C//DTD SVG 20010904//EN"
 "http://www.w3.org/TR/2001/REC-SVG-20010904/DTD/svg10.dtd">
<svg version="1.0" xmlns="http://www.w3.org/2000/svg"
 width="1024.000000pt" height="986.000000pt" viewBox="0 0 1024.000000 986.000000"
 preserveAspectRatio="xMidYMid meet">
<metadata>
Created by potrace 1.16, written by Peter Selinger 2001-2019
</metadata>
<g transform="translate(0.000000,986.000000) scale(0.100000,-0.100000)"
fill="#000000" stroke="none">
<path d="M1330 9782 c-71 -46 -175 -162 -194 -218 -24 -72 -21 -145 10 -212
21 -45 59 -89 179 -207 84 -82 160 -163 170 -178 10 -15 52 -56 94 -89 81 -66
190 -170 525 -503 116 -115 246 -241 288 -278 l77 -68 -43 -53 c-44 -54 -158
-251 -196 -341 -32 -73 -50 -135 -50 -173 0 -26 -17 -55 -73 -130 -158 -209
-257 -338 -285 -371 l-28 -34 -94 17 c-103 19 -218 15 -257 -10 -12 -8 -45
-47 -71 -87 -46 -67 -158 -221 -201 -276 -87 -111 -151 -273 -151 -382 0 -47
-1 -48 -68 -97 -103 -77 -172 -131 -197 -155 -66 -65 -138 -130 -205 -186 -94
-78 -264 -271 -300 -340 -22 -42 -41 -209 -49 -437 l-9 -222 -37 -83 c-21 -46
-55 -133 -76 -194 -32 -90 -39 -124 -39 -185 0 -103 20 -141 177 -335 123
-153 131 -161 178 -174 35 -9 145 -15 358 -18 169 -3 307 -8 307 -10 0 -3 -17
-32 -39 -64 -42 -63 -101 -213 -101 -258 0 -63 66 -161 426 -631 76 -100 232
-283 306 -360 86 -90 386 -442 414 -487 51 -80 274 -354 398 -488 31 -33 56
-67 56 -76 0 -9 -20 -60 -45 -112 -25 -53 -52 -122 -60 -154 -30 -114 -15
-234 43 -348 44 -88 89 -132 213 -209 94 -59 132 -76 184 -86 l65 -12 0 -43
c0 -56 11 -84 66 -166 l45 -68 -21 -21 c-11 -11 -20 -29 -20 -39 0 -29 54 -81
84 -81 33 0 33 14 1 42 -28 24 -31 45 -12 72 13 17 17 16 76 -13 109 -56 222
-93 303 -100 75 -6 95 0 41 13 -67 16 -261 90 -351 133 -64 31 -157 128 -173
182 -19 63 3 91 118 148 89 44 101 48 163 46 61 -2 236 -29 432 -67 43 -8 133
-20 200 -26 68 -6 249 -24 403 -40 435 -46 775 -64 789 -42 3 5 -63 14 -147
20 -180 14 -791 73 -795 77 -2 2 15 40 38 85 l41 82 77 -6 c42 -3 199 -13 348
-21 149 -8 284 -17 300 -20 58 -10 353 -35 559 -46 231 -13 840 -7 990 10 50
6 176 17 280 26 434 36 569 55 659 94 80 35 50 45 -111 37 -76 -3 -167 -9
-202 -12 l-64 -7 27 50 c75 138 156 174 255 116 43 -25 53 -27 181 -27 l134
-1 53 -100 c65 -123 132 -295 209 -528 53 -163 71 -196 88 -168 3 5 -6 49 -20
97 -52 182 -113 333 -223 555 -43 85 -80 161 -82 168 -4 10 -28 13 -96 12 -50
-1 -94 2 -97 7 -14 24 101 85 192 103 76 14 164 7 252 -20 98 -31 134 -60 160
-128 27 -69 81 -330 104 -498 9 -66 22 -160 29 -209 7 -53 17 -91 25 -94 31
-10 -10 323 -79 626 -11 51 -18 96 -15 99 20 21 256 -99 361 -184 33 -27 70
-64 83 -83 22 -32 23 -42 18 -115 -3 -44 -8 -141 -12 -216 l-6 -137 26 5 c16
3 28 13 31 27 4 20 35 479 55 816 5 85 11 319 15 520 4 209 13 421 21 495 25
218 27 250 19 243 -10 -9 -42 -166 -60 -293 -8 -55 -15 -167 -15 -250 0 -82
-5 -211 -10 -285 -6 -74 -19 -276 -30 -449 -11 -172 -21 -315 -23 -317 -1 -2
-33 23 -69 54 -37 32 -97 75 -133 97 -36 21 -67 41 -69 44 -9 14 -56 238 -56
266 0 17 31 90 75 176 82 160 134 304 165 454 35 168 27 228 -49 388 -27 56
-62 138 -79 182 -70 181 -99 260 -98 262 1 1 103 14 226 29 197 23 248 25 410
20 102 -3 198 -9 214 -12 25 -6 37 -24 101 -158 91 -191 146 -306 201 -424 45
-95 57 -156 30 -150 -8 2 -97 82 -197 178 -100 96 -188 176 -195 178 -30 7
-25 -8 124 -373 49 -121 105 -258 125 -305 40 -97 198 -428 258 -540 21 -41
79 -154 128 -250 50 -96 105 -193 123 -215 77 -93 90 -120 89 -187 0 -35 -4
-75 -8 -89 l-8 -26 -150 99 c-82 54 -167 108 -189 119 -80 43 -205 32 -307
-25 -81 -46 -259 -239 -259 -282 0 -11 28 -14 145 -14 l145 0 42 64 c54 84 75
96 120 68 19 -12 51 -46 72 -77 l38 -55 197 0 196 0 28 118 c43 182 43 183
-67 303 -45 49 -86 113 -156 245 -52 97 -115 214 -138 258 -24 45 -62 117 -85
161 -46 90 -46 86 -26 340 19 249 27 337 33 343 7 7 126 -74 176 -119 19 -17
85 -78 145 -133 216 -199 235 -216 259 -216 20 0 21 -19 -15 232 -29 207 -57
336 -117 543 -34 118 -53 156 -121 249 -28 39 -49 72 -47 74 10 9 222 -51 276
-78 32 -16 64 -30 69 -30 5 0 -8 52 -29 116 -68 203 -181 386 -330 535 -52 52
-113 104 -135 115 -59 28 -244 26 -382 -5 -56 -12 -106 -20 -111 -17 -17 10
-14 194 4 248 l16 50 -27 28 c-28 29 -28 29 -10 57 10 15 27 37 38 48 43 46
52 76 52 185 -1 93 -5 118 -37 220 -39 123 -93 332 -128 495 -51 236 -141 508
-216 649 -47 89 -159 206 -245 257 -59 35 -307 151 -459 214 -263 109 -324
145 -457 269 -133 124 -142 128 -280 142 l-72 6 -44 57 c-150 190 -342 360
-460 408 l-72 29 -50 196 c-27 108 -46 200 -42 204 4 4 16 -1 27 -11 17 -15
30 -16 104 -10 118 9 150 31 154 102 2 43 -6 73 -48 179 -71 178 -72 191 -16
288 25 44 48 99 52 124 17 110 -19 284 -66 327 -32 29 -20 105 16 105 8 0 24
5 35 10 19 11 19 12 -6 54 -32 55 -32 66 4 66 77 0 81 36 11 105 -27 27 -50
53 -50 58 0 5 19 6 43 3 49 -8 82 9 72 36 -4 10 -27 33 -51 54 -25 20 -52 46
-60 59 -14 22 -13 25 32 68 l48 44 -87 58 c-48 31 -87 61 -87 66 0 5 20 27 45
50 59 55 60 79 2 79 -58 0 -75 15 -79 70 -3 44 -4 45 -33 41 -81 -9 -78 -11
-96 54 -29 107 -109 245 -143 245 -14 0 -17 -5 -12 -22 55 -193 48 -217 -27
-90 -71 119 -182 241 -201 221 -3 -3 -6 -29 -7 -57 -2 -34 -6 -52 -15 -52 -7
0 -75 34 -152 75 -77 41 -145 75 -151 75 -6 0 -11 -7 -11 -15 0 -25 -23 -18
-164 51 -75 37 -139 65 -141 62 -3 -3 8 -35 25 -71 16 -37 30 -68 30 -69 0 -2
-82 -2 -182 0 -190 3 -289 -5 -295 -25 -2 -6 7 -23 21 -37 30 -29 32 -36 11
-36 -9 0 -64 -22 -123 -48 -143 -65 -139 -64 -174 -46 -47 24 -55 6 -29 -62
12 -31 20 -58 19 -59 -2 -2 -42 -28 -90 -59 -49 -32 -88 -62 -88 -68 0 -6 8
-16 17 -23 15 -11 13 -17 -20 -62 -48 -66 -130 -135 -200 -169 -31 -16 -57
-32 -57 -36 0 -10 52 -32 118 -48 28 -8 52 -18 52 -23 0 -17 -58 -93 -109
-142 -28 -27 -51 -53 -51 -57 0 -5 17 -8 38 -8 l37 0 -27 -24 c-45 -38 -37
-54 33 -62 l61 -7 -6 -31 c-9 -44 -62 -128 -123 -196 -76 -84 -71 -101 26 -74
34 10 64 14 68 10 4 -4 -3 -26 -17 -49 -82 -142 -81 -147 20 -147 38 0 70 -3
70 -6 0 -10 -82 -144 -92 -150 -4 -3 -43 15 -85 40 -81 48 -127 62 -167 52
-32 -8 -109 -66 -120 -92 -6 -13 -26 -24 -60 -32 -28 -7 -73 -26 -100 -42 -27
-17 -51 -29 -53 -26 -3 3 18 33 46 68 62 77 81 115 81 164 0 33 -8 45 -68 103
-37 36 -107 93 -155 125 -97 65 -114 89 -141 193 -35 139 -83 190 -189 200
-60 5 -67 8 -78 34 -6 16 -27 43 -46 59 -30 27 -40 30 -101 30 l-68 0 -38 70
-37 70 -97 0 c-76 0 -123 -7 -216 -31 -139 -36 -119 -43 -263 93 -160 152
-221 216 -360 373 -73 83 -160 179 -193 215 -34 36 -74 91 -91 122 -33 66 -57
82 -108 75 -34 -6 -38 -4 -71 46 -78 115 -194 240 -298 320 -46 35 -63 41
-110 45 -50 3 -63 0 -102 -26z m219 -74 l74 -61 -69 -66 c-159 -151 -226 -211
-234 -211 -12 0 -78 102 -85 131 -4 16 -1 39 8 56 24 45 198 208 227 212 3 0
38 -27 79 -61z m213 -211 c86 -108 103 -131 103 -142 0 -20 -161 -146 -176
-139 -18 8 -169 180 -168 191 0 9 179 143 191 143 4 0 26 -24 50 -53z m-194
-220 l92 -93 -48 -47 -49 -48 -91 105 -92 104 42 36 c24 20 45 36 48 36 3 0
47 -42 98 -93z m396 78 c12 -9 16 -18 10 -23 -5 -5 -43 -35 -84 -68 -41 -32
-86 -68 -100 -80 -14 -12 -54 -44 -90 -71 -75 -57 -108 -101 -116 -155 -4 -21
-10 -38 -15 -38 -15 0 -39 32 -39 53 0 33 111 149 221 233 53 40 114 94 134
119 40 49 50 52 79 30z m3835 -39 c58 -30 131 -85 170 -128 38 -43 61 -34 54
21 -4 26 -2 41 5 41 20 0 243 -135 303 -182 32 -27 64 -48 69 -48 19 0 10 25
-21 63 -29 36 -49 83 -49 119 0 31 14 20 67 -55 49 -69 79 -126 122 -232 13
-34 25 -50 38 -50 14 0 20 13 29 65 7 36 12 69 13 74 1 5 7 3 15 -3 18 -15 36
-88 36 -147 l0 -47 38 8 c74 14 77 13 74 -21 -4 -35 7 -46 61 -63 20 -7 37
-17 37 -22 0 -13 -55 -39 -83 -39 -23 0 -47 -16 -47 -32 0 -4 47 -35 105 -69
58 -34 105 -65 105 -69 0 -18 -50 -40 -79 -34 -48 10 -39 -15 35 -95 37 -40
64 -74 61 -78 -3 -3 -27 7 -52 22 -47 27 -75 28 -75 2 0 -8 27 -50 59 -93 32
-43 57 -81 56 -83 -2 -2 -25 4 -51 13 -26 9 -51 16 -56 16 -19 0 -6 -45 27
-94 40 -60 40 -62 20 -82 -8 -8 -17 -38 -21 -65 -6 -41 -14 -57 -44 -85 -20
-19 -46 -50 -56 -69 -10 -19 -21 -35 -25 -35 -4 0 -10 43 -14 95 -7 95 -7 95
-56 156 -27 34 -49 65 -49 70 0 20 24 17 79 -11 69 -34 71 -35 71 -16 0 8 -30
30 -67 48 -48 24 -69 41 -71 56 -3 18 2 21 39 24 56 4 60 22 7 34 -33 7 -43
14 -43 29 0 15 8 21 33 23 39 4 41 18 5 35 -55 23 -58 55 -7 53 51 -1 53 19 5
44 -41 20 -41 20 -41 80 0 77 -12 105 -67 162 -38 38 -45 51 -39 72 3 14 9 37
12 51 5 21 3 25 -14 25 -12 0 -24 -5 -27 -11 -5 -6 -12 -4 -22 8 -10 13 -16
15 -19 5 -3 -7 -15 -17 -26 -23 -19 -10 -20 -8 -16 56 4 79 -11 89 -27 18 -15
-66 -21 -73 -60 -73 -27 0 -38 7 -56 33 -57 82 -138 141 -169 122 -19 -11 -10
-24 28 -44 22 -11 53 -36 70 -56 51 -57 100 -165 75 -165 -3 0 -39 32 -79 70
-70 68 -122 100 -163 100 -11 0 -44 28 -78 65 -44 49 -67 66 -88 68 -43 3 -44
-26 -2 -41 37 -13 65 -41 121 -119 44 -62 40 -68 -9 -17 -33 34 -42 37 -118
45 -45 5 -93 11 -107 14 -21 5 -34 -4 -75 -47 -73 -79 -71 -33 4 70 23 30 38
42 57 42 31 0 28 24 -5 28 -26 4 -71 -41 -119 -119 -30 -50 -96 -109 -107 -97
-3 3 2 21 10 41 21 51 19 53 -20 18 -20 -17 -42 -31 -50 -31 -8 0 -44 -13 -80
-30 -36 -16 -69 -30 -73 -30 -4 0 -23 24 -42 53 -19 28 -39 55 -45 59 -5 4 -6
10 -2 14 4 5 45 -4 90 -19 92 -30 117 -33 117 -14 0 11 -238 97 -268 97 -22 0
-12 -23 49 -107 61 -87 70 -116 33 -121 -14 -2 -44 22 -104 85 -46 48 -85 82
-87 76 -2 -6 18 -61 45 -121 27 -60 47 -114 43 -119 -25 -34 -127 -106 -177
-123 -32 -11 -63 -25 -69 -31 -10 -11 -5 -11 85 7 51 10 35 -19 -40 -72 -38
-27 -70 -55 -70 -63 0 -14 5 -11 90 46 81 54 83 15 4 -69 -59 -61 -76 -88 -56
-88 5 0 19 12 33 26 13 14 37 35 52 46 36 26 51 14 67 -52 l12 -48 -91 -123
c-50 -67 -91 -127 -91 -133 0 -6 26 18 58 54 119 135 120 136 133 123 18 -18
-12 -94 -67 -166 l-46 -62 5 -95 c5 -81 22 -156 52 -232 12 -30 -9 -20 -33 16
-34 50 -84 71 -133 57 -22 -7 -39 -15 -39 -19 -1 -4 -10 -18 -21 -31 -19 -24
-20 -24 -59 -6 -22 10 -40 22 -40 27 0 5 11 28 24 51 13 23 36 63 50 88 l26
46 -65 6 c-37 2 -69 7 -72 11 -3 3 13 48 37 100 54 120 46 151 -29 109 -16
-10 -33 -15 -36 -11 -3 3 17 46 45 94 51 90 76 156 65 174 -3 6 -26 10 -51 10
-24 0 -44 3 -44 6 0 4 19 23 42 43 44 40 45 61 2 61 -13 0 -24 3 -24 6 0 3 27
41 61 85 33 43 57 84 54 89 -3 6 -21 10 -38 11 -18 0 -54 6 -82 13 l-50 12 63
33 c38 21 88 61 128 103 77 82 104 123 104 159 0 43 41 70 153 98 51 13 73 24
75 36 4 16 -2 17 -50 11 -43 -6 -57 -4 -67 8 -18 22 -6 46 23 46 13 0 68 21
122 47 87 41 109 47 179 51 70 4 92 0 173 -27 114 -38 133 -40 106 -10 -31 34
-91 60 -187 79 -90 18 -131 40 -111 60 7 7 79 7 218 1 l208 -9 39 -38 c21 -21
39 -34 39 -28 0 5 -18 40 -40 78 -59 101 -54 114 29 72z m-3809 -103 c0 -5 -5
-15 -10 -23 -8 -12 -2 -16 27 -20 20 -3 38 -11 41 -17 5 -17 -35 -31 -113 -39
-59 -6 -65 -5 -65 12 0 22 78 93 103 94 9 0 17 -3 17 -7z m-217 -148 c4 -8 -4
-45 -17 -82 -35 -101 -37 -103 -57 -103 -15 0 -19 7 -19 36 0 31 -3 35 -20 29
-40 -13 -21 32 36 84 60 55 69 59 77 36z m364 -106 c-9 -103 -30 -125 -192
-193 -35 -15 -61 -21 -63 -15 -6 15 29 139 50 182 20 39 73 72 143 87 59 13
68 4 62 -61z m138 -7 c0 -19 -85 -122 -101 -122 -27 0 -14 38 32 89 43 48 69
60 69 33z m3640 -187 c32 -13 54 -36 128 -132 47 -61 60 -72 71 -55 2 4 -13
49 -34 100 -21 50 -35 94 -30 97 10 6 75 -49 188 -159 40 -39 80 -72 88 -74
20 -5 18 33 -6 103 -11 32 -20 60 -20 62 0 1 13 3 29 3 44 0 147 -59 199 -114
l48 -51 2 -225 c1 -130 7 -240 13 -260 6 -19 30 -64 52 -99 36 -56 42 -73 45
-131 2 -37 -1 -114 -8 -171 -6 -57 -15 -192 -20 -299 -9 -217 -20 -264 -101
-420 -69 -133 -248 -322 -364 -383 -58 -31 -64 -32 -185 -32 -112 1 -133 4
-198 29 -203 77 -456 247 -586 395 -56 63 -56 63 -96 228 -17 70 -47 180 -67
243 -55 181 -84 299 -86 355 -2 47 2 56 41 102 82 98 87 139 42 326 -35 147
-38 204 -10 239 26 34 170 138 282 204 121 71 159 73 102 4 -15 -17 -23 -34
-20 -38 8 -7 29 5 100 56 51 37 66 35 66 -9 0 -16 5 -29 13 -29 6 0 39 37 72
81 l59 81 81 -7 c44 -4 93 -13 110 -20z m-748 -132 c17 -26 11 -53 -11 -53
-15 0 -76 114 -76 141 0 13 55 -43 87 -88z m-3147 73 c0 -20 -61 -76 -82 -76
-31 0 -20 28 25 59 48 34 57 37 57 17z m410 -18 c0 -20 -51 -152 -64 -164 -6
-7 -44 -22 -84 -34 -97 -31 -99 -28 -82 97 7 54 18 101 24 105 20 14 206 9
206 -4z m170 -98 c0 -14 -49 -44 -58 -35 -4 3 4 15 17 26 26 21 41 24 41 9z
m639 -101 c11 -17 26 -74 36 -128 9 -53 25 -132 36 -175 14 -61 16 -82 7 -87
-9 -6 -8 -13 5 -27 22 -24 21 -50 -2 -87 -22 -37 -137 -155 -151 -155 -5 0
-26 11 -46 25 -20 14 -41 25 -45 25 -9 0 -24 -16 -53 -55 l-15 -20 -1 20 c0
30 42 113 104 206 31 46 56 90 56 97 0 7 -11 17 -25 22 -14 5 -25 14 -25 20 0
19 -18 10 -53 -25 -34 -34 -57 -44 -57 -26 0 5 20 25 45 45 25 21 45 43 44 49
0 7 -57 63 -125 125 -68 63 -124 117 -124 121 0 4 44 17 98 29 113 25 137 28
215 31 54 1 58 -1 76 -30z m-545 -44 c-3 -118 -58 -189 -173 -226 -67 -22 -72
-22 -88 -6 -16 16 -16 20 2 69 36 100 56 125 136 167 41 21 85 38 99 37 22 -1
25 -5 24 -41z m156 -58 c0 -7 -13 -26 -30 -42 -36 -34 -42 -13 -9 29 22 28 39
34 39 13z m615 -32 c13 -8 39 -67 78 -176 31 -90 57 -172 57 -182 0 -15 -6
-17 -37 -12 l-38 5 33 -15 c45 -21 48 -36 18 -88 -47 -80 -229 -237 -275 -237
-8 0 -22 -6 -30 -14 -15 -12 -155 -46 -194 -46 -9 0 -24 14 -34 31 -16 27 -22
30 -53 24 l-35 -6 25 20 c14 11 45 30 70 43 108 56 293 222 320 289 12 28 9
49 -23 198 -20 91 -37 169 -37 173 0 19 123 14 155 -7z m-1101 -20 c-12 -31
-91 -63 -82 -32 6 17 68 58 79 52 4 -3 6 -12 3 -20z m571 -96 c7 -11 -21 -141
-37 -172 -15 -29 -71 -47 -142 -47 -91 0 -92 7 -20 154 15 32 37 62 49 66 29
13 143 12 150 -1z m705 0 c58 -12 65 -21 90 -123 23 -90 37 -129 66 -180 30
-52 32 -71 4 -54 -31 20 -35 1 -6 -32 14 -17 26 -36 26 -41 0 -4 -27 -39 -59
-77 -62 -72 -131 -134 -214 -193 l-49 -34 -23 28 c-28 32 -39 35 -30 8 3 -11
1 -22 -5 -26 -5 -3 -10 -14 -10 -25 0 -27 -21 -30 -131 -20 -73 7 -108 15
-129 30 -48 34 -90 21 -90 -27 0 -28 -11 -29 -36 -2 -38 42 20 84 136 99 113
14 129 21 240 103 104 77 125 98 173 172 27 41 32 61 35 121 3 60 0 80 -21
125 -14 30 -32 78 -41 107 -17 60 -17 61 74 41z m-1080 -162 c-16 -17 -32 -28
-36 -24 -10 9 46 68 58 61 4 -3 -5 -19 -22 -37z m480 -82 c0 -9 -12 -39 -26
-67 -17 -34 -26 -67 -26 -97 l1 -46 -50 4 c-39 2 -52 7 -58 23 -6 18 4 167 13
175 5 5 92 20 124 22 14 1 22 -5 22 -14z m-345 -185 c5 0 26 19 46 42 21 24
41 39 45 35 4 -4 -11 -27 -35 -51 l-43 -43 96 -93 c52 -51 98 -102 102 -114 4
-11 22 -43 40 -71 19 -27 34 -53 34 -56 0 -3 -28 -12 -62 -19 -66 -13 -127
-43 -191 -93 -55 -43 -38 -44 35 -3 150 84 314 86 383 5 l25 -30 48 45 c50 47
66 54 77 36 10 -16 -8 -39 -53 -69 l-42 -27 31 -40 c26 -35 42 -44 120 -69 70
-22 89 -32 89 -47 0 -19 20 -24 35 -9 6 5 57 26 115 46 138 48 265 59 294 26
l19 -21 -116 0 c-111 0 -120 -2 -218 -40 -56 -22 -128 -45 -159 -51 -141 -28
-660 24 -783 77 -69 30 -112 59 -163 110 -32 33 -34 34 -35 12 -6 -208 -17
-327 -32 -358 -10 -20 -53 -64 -104 -105 -181 -146 -223 -187 -328 -319 -60
-75 -112 -136 -116 -136 -14 0 -163 120 -191 154 -16 19 -35 51 -43 70 l-15
35 121 138 c186 212 300 357 379 483 85 135 77 127 92 112 23 -23 28 -11 27
71 0 96 7 118 85 264 67 127 128 213 177 249 l33 24 86 -85 c47 -47 90 -85 95
-85z m1311 -16 c111 -71 136 -122 97 -197 -24 -47 -195 -277 -206 -277 -5 0
-25 14 -44 30 -18 17 -44 30 -57 30 -28 0 -62 -35 -72 -75 -10 -43 -14 -47
-30 -34 -9 7 -14 31 -14 64 0 68 49 167 125 252 30 33 55 64 55 67 0 13 -28 5
-53 -14 -30 -24 -55 -26 -64 -4 -4 10 10 32 40 62 48 51 71 88 82 139 l7 33
39 -21 c22 -11 65 -36 95 -55z m-879 18 c7 -29 -23 -64 -51 -60 -17 2 -21 10
-20 40 2 50 19 71 45 55 11 -7 22 -22 26 -35z m3754 -2 c18 -10 27 -31 12 -29
-55 9 -74 -18 -132 -186 -23 -66 -44 -126 -46 -133 -11 -30 -22 0 -14 35 5 21
14 63 20 93 14 68 75 196 103 215 24 18 31 18 57 5z m65 -135 c2 -11 -1 -65
-8 -120 -11 -84 -16 -100 -32 -103 -15 -3 -18 0 -12 19 25 94 13 129 -45 129
-34 0 -34 6 2 88 l18 42 36 -17 c19 -9 38 -26 41 -38z m-3938 -101 c-4 -23
-26 -30 -34 -10 -8 20 15 51 29 37 5 -5 7 -17 5 -27z m1440 -8 c8 -9 -19 -74
-39 -92 -11 -10 -46 -72 -78 -138 -53 -111 -63 -126 -132 -188 -67 -60 -78
-75 -108 -150 -45 -110 -87 -151 -212 -204 -85 -37 -98 -46 -131 -93 -87 -124
-126 -154 -235 -180 -77 -18 -94 -25 -178 -76 -50 -31 -63 -31 -76 -2 -16 35
19 101 91 172 59 59 60 60 60 117 l0 57 58 44 c31 25 68 57 81 71 14 14 29 26
34 26 6 0 34 -18 63 -40 29 -22 58 -40 64 -40 7 0 24 9 38 21 l26 20 19 -25
c16 -23 26 -26 78 -26 61 0 109 17 141 50 46 48 78 152 63 200 -6 18 -12 21
-36 16 -16 -3 -29 -3 -29 -1 0 3 29 35 65 71 36 36 65 69 65 73 0 4 -22 29
-50 56 -27 27 -50 53 -50 57 0 18 121 86 163 92 35 5 53 17 93 57 27 28 58 55
69 60 18 8 73 4 83 -5z m2409 2 c5 -7 9 -55 8 -105 -2 -105 -3 -107 -95 -177
-85 -65 -80 -67 -80 19 0 65 3 78 22 93 47 38 58 54 73 106 19 65 50 92 72 64z
m-2261 -79 c81 -54 134 -122 134 -169 0 -23 -46 -99 -60 -99 -3 0 -52 47 -110
104 l-105 105 30 55 c16 30 31 55 33 55 1 0 37 -23 78 -51z m315 22 c28 -21
75 -101 61 -101 -6 0 -24 17 -40 38 -26 31 -34 35 -49 26 -16 -10 -18 -26 -18
-135 0 -117 1 -124 20 -124 18 0 20 8 23 78 3 78 9 88 41 68 14 -9 13 -30 -7
-111 -15 -61 3 -98 86 -177 42 -40 69 -73 61 -73 -53 1 -165 85 -213 160 -60
94 -83 235 -54 331 9 33 15 39 38 39 15 0 38 -8 51 -19z m-1775 -26 c6 -16
-12 -45 -27 -45 -10 0 -12 44 -2 53 11 11 23 8 29 -8z m482 -39 c6 -29 -28
-105 -54 -123 -28 -18 -123 -42 -141 -36 -18 6 -15 48 6 108 16 45 21 50 62
61 65 18 123 14 127 -10z m1134 -3 c19 -17 24 -58 9 -67 -10 -6 -51 53 -51 73
0 16 21 14 42 -6z m-912 -126 c46 -35 38 -47 -30 -47 -66 0 -76 13 -44 58 18
26 31 24 74 -11z m1205 3 c3 -5 -1 -23 -10 -39 -25 -48 -19 -75 30 -132 49
-57 51 -82 4 -48 -51 36 -84 95 -81 147 2 56 38 102 57 72z m-996 -26 c29 -36
27 -48 -15 -94 -40 -44 -57 -43 -89 6 -17 26 -17 26 26 70 24 24 46 44 50 44
4 0 17 -12 28 -26z m391 -14 c9 -8 39 -35 66 -60 80 -72 88 -90 74 -151 -9
-38 -24 -64 -55 -96 -23 -23 -46 -43 -52 -43 -8 0 -108 100 -171 172 l-23 26
57 95 c62 102 58 100 104 57z m353 -74 c34 -75 124 -171 195 -206 26 -13 74
-31 107 -40 44 -11 63 -22 72 -40 17 -33 16 -419 0 -470 -9 -27 -30 -47 -90
-88 l-77 -54 -281 279 -281 279 65 41 c75 47 113 102 123 179 6 41 16 60 67
117 32 37 62 67 66 67 3 0 19 -29 34 -64z m2113 -102 c56 -157 64 -201 39
-211 -9 -3 -18 -3 -20 -1 -3 3 -16 64 -29 136 -14 72 -34 152 -45 178 -24 54
-25 57 -9 52 6 -2 35 -71 64 -154z m-83 57 c49 -213 56 -296 27 -296 -11 0
-21 39 -42 170 -15 94 -25 176 -23 183 10 28 24 8 38 -57z m-97 14 c9 -22 -5
-87 -17 -80 -12 8 -12 95 1 95 6 0 13 -7 16 -15z m-2801 -92 c0 -18 -197 -173
-220 -173 -26 0 -65 27 -65 45 0 16 101 100 140 117 62 26 145 33 145 11z
m419 -225 c36 -33 32 -52 -33 -150 -54 -79 -123 -152 -140 -147 -5 2 -56 49
-111 104 l-102 100 34 25 c64 47 116 111 144 176 l27 64 76 -73 c42 -40 89
-85 105 -99z m2434 135 c16 -42 21 -98 11 -114 -7 -12 -10 -12 -23 1 -17 17
-20 34 -18 98 2 48 15 55 30 15z m-3907 -89 c143 -36 597 -27 641 13 10 9 21
14 24 11 3 -3 -14 -19 -37 -34 -24 -16 -60 -45 -81 -65 -35 -34 -38 -41 -38
-90 0 -52 -1 -55 -59 -110 -89 -84 -119 -161 -92 -231 10 -25 80 -107 173
-202 55 -57 59 -58 99 -53 23 3 65 21 96 42 52 35 58 36 112 30 50 -5 60 -3
101 23 25 16 80 62 124 103 43 41 81 75 85 77 10 3 427 -405 420 -412 -3 -3
-95 -1 -205 5 -242 14 -584 6 -714 -17 -87 -14 -106 -22 -237 -97 -114 -64
-165 -101 -250 -179 -60 -55 -131 -115 -160 -134 l-51 -34 -144 0 c-79 0 -160
-5 -180 -10 -20 -6 -72 -36 -115 -67 -96 -69 -177 -113 -209 -113 l-24 0 32
48 c18 27 44 56 58 64 49 28 189 225 273 383 150 284 162 313 162 390 0 69 -1
72 -57 155 -39 60 -80 106 -137 153 -45 37 -81 71 -81 76 0 8 87 136 123 182
12 15 47 47 77 70 30 24 68 55 84 70 l29 27 47 -29 c25 -15 75 -36 111 -45z
m-1162 15 c28 -6 53 -14 56 -19 5 -8 -51 -80 -133 -170 -34 -37 -43 -42 -52
-30 -10 15 -6 76 10 138 5 17 5 32 0 32 -16 0 -32 -72 -32 -137 1 -124 72
-223 298 -414 93 -79 177 -121 282 -143 41 -8 76 -17 79 -20 12 -12 -102 -239
-200 -401 -33 -55 -118 -142 -159 -164 -24 -12 -36 -8 -189 69 -301 151 -372
196 -474 299 -91 92 -109 127 -113 222 -6 127 42 236 214 485 104 149 188 240
231 250 15 3 33 7 38 9 22 7 97 4 144 -6z m2184 -311 c104 -114 118 -131 115
-137 -2 -3 -39 -41 -84 -84 l-81 -77 -28 51 c-15 29 -54 78 -87 111 -53 53
-58 62 -46 76 78 94 121 142 128 142 5 0 42 -37 83 -82z m1512 -40 c82 -50
188 -119 235 -153 175 -126 218 -145 322 -145 106 0 150 16 211 75 30 29 77
67 104 85 26 18 60 44 74 57 l26 24 42 -93 c23 -51 46 -120 51 -153 20 -116
-25 -526 -63 -576 -15 -20 -156 -112 -214 -140 -27 -13 -53 -19 -67 -15 -51
13 -413 391 -480 501 -43 71 -122 230 -146 295 -16 43 -30 60 -30 37 0 -28 99
-314 137 -395 20 -42 67 -134 105 -204 37 -69 68 -130 68 -134 0 -12 -56 4
-167 47 -60 22 -129 49 -155 59 -26 10 -80 23 -120 30 -106 17 -103 15 -142
89 -43 82 -45 113 -17 274 29 163 41 291 41 423 0 106 1 116 17 109 10 -3 85
-47 168 -97z m1255 -142 c39 -230 91 -466 121 -552 l30 -85 -48 -60 -48 -59
-97 0 c-53 0 -104 -3 -114 -7 -14 -5 -16 -2 -10 28 3 19 15 108 26 199 16 135
19 197 14 340 -8 202 3 298 43 380 l27 55 18 -59 c10 -32 27 -113 38 -180z
m-2301 169 c29 -21 60 -35 78 -35 42 0 59 -18 77 -81 18 -63 46 -86 91 -75 39
10 63 -16 71 -78 10 -68 46 -106 103 -106 47 0 71 -26 71 -77 0 -58 -34 -43
-140 59 -208 201 -420 412 -420 420 0 16 20 8 69 -27z m-1927 -51 c29 -26 69
-64 88 -86 44 -50 110 -156 110 -179 0 -25 -56 -56 -136 -75 -106 -25 -395 -7
-394 24 0 4 35 55 78 113 42 58 101 138 129 177 29 40 57 72 63 72 5 0 33 -21
62 -46z m1108 -187 c78 -93 82 -99 66 -115 -16 -16 -19 -15 -39 13 -12 16 -48
62 -79 101 -56 69 -73 109 -44 102 7 -2 51 -47 96 -101z m3429 -41 c150 -123
291 -285 370 -427 30 -53 32 -64 56 -325 14 -148 29 -309 35 -359 50 -448 84
-1089 81 -1525 -1 -164 4 -311 18 -480 32 -376 24 -341 87 -404 30 -31 54 -60
54 -66 0 -5 29 -72 65 -148 35 -76 70 -159 76 -183 18 -68 38 -43 -306 -399
-263 -273 -499 -593 -754 -1021 -28 -48 -56 -91 -63 -96 -7 -6 -110 -31 -228
-57 -274 -59 -280 -60 -280 -51 0 11 93 181 161 298 32 53 80 123 108 155 44
51 194 227 276 324 45 53 232 253 375 401 110 113 262 304 277 347 3 8 20 47
39 86 46 100 49 117 29 171 -16 41 -81 158 -167 298 -17 28 -37 70 -44 94 -19
62 -18 272 2 357 12 55 13 85 4 178 -26 280 -50 596 -50 670 0 44 -7 151 -15
236 -39 397 -46 491 -55 725 -5 138 -12 266 -14 285 -3 19 -13 112 -21 205
-33 360 -30 344 -75 405 -83 114 -200 356 -185 381 10 15 75 -18 144 -75z
m-1793 -5 c-9 -61 -98 -241 -119 -241 -19 0 27 150 73 241 28 53 55 53 46 0z
m-97 -73 c-94 -233 -108 -319 -90 -550 7 -90 11 -221 10 -293 -1 -71 5 -200
14 -285 9 -85 21 -267 27 -405 5 -137 14 -329 19 -425 5 -96 7 -418 5 -715
l-3 -540 -36 -150 c-119 -503 -118 -484 -33 -654 45 -89 83 -147 133 -205 39
-45 86 -101 105 -126 19 -25 37 -47 40 -50 3 -3 34 -45 69 -95 36 -49 107
-140 158 -202 51 -62 123 -159 159 -215 36 -57 78 -121 92 -143 35 -53 214
-311 275 -394 49 -68 104 -168 96 -174 -2 -2 -47 0 -99 4 -52 4 -140 8 -195 8
-74 1 -107 5 -123 17 -12 8 -54 54 -94 102 -40 48 -83 98 -96 112 -13 14 -62
77 -109 140 -48 63 -201 263 -342 444 -347 445 -335 430 -395 526 -96 155
-107 185 -118 339 -5 75 -7 159 -3 186 3 28 21 163 40 300 18 138 43 354 54
480 12 127 26 276 31 333 6 57 27 311 46 565 34 438 37 496 44 1117 5 502 10
665 20 698 14 45 89 121 235 238 33 27 62 52 63 56 2 4 8 8 13 8 5 0 -1 -24
-12 -52z m-4012 -195 c12 -27 36 -73 53 -103 74 -130 90 -161 135 -275 64
-161 76 -183 127 -231 47 -45 57 -49 265 -89 70 -14 128 -26 130 -28 6 -6 -44
-141 -75 -202 -74 -147 -259 -351 -512 -563 -111 -93 -161 -142 -280 -269 -85
-91 -247 -191 -489 -303 l-115 -53 -48 54 c-150 166 -179 286 -114 475 13 38
44 128 69 199 25 72 62 193 82 270 21 77 51 166 66 199 33 67 36 89 11 84 -11
-2 -33 -41 -64 -113 -26 -61 -50 -114 -52 -120 -8 -14 4 248 14 324 11 77 37
119 172 272 113 127 221 235 308 305 74 60 282 213 291 213 3 1 15 -20 26 -46z
m3594 -54 c19 -7 36 -13 38 -15 2 -2 -15 -34 -37 -73 -101 -176 -191 -459
-238 -748 -28 -177 -47 -602 -26 -589 23 14 142 196 197 301 82 157 82 157 90
30 10 -148 3 -286 -45 -835 -22 -261 -45 -531 -50 -600 -9 -121 -28 -282 -50
-412 -17 -103 -45 -551 -45 -713 0 -132 3 -158 24 -220 29 -86 87 -203 153
-309 47 -77 185 -275 198 -286 3 -3 17 -21 30 -40 65 -92 292 -367 401 -485
30 -33 89 -100 130 -150 41 -49 76 -92 79 -95 9 -8 40 -59 40 -65 0 -14 -39 3
-224 102 -111 58 -235 124 -276 146 -41 22 -102 54 -135 72 -33 18 -109 58
-170 90 -60 32 -114 62 -120 66 -5 5 -10 46 -10 92 -1 68 -6 92 -29 139 -15
32 -39 67 -53 78 -30 24 -113 50 -159 50 -42 0 -48 11 -63 100 -23 132 -58
163 -232 201 -52 11 -104 27 -116 35 -28 18 -47 81 -80 269 -24 138 -25 157
-14 235 11 79 56 284 117 540 14 58 50 215 80 350 52 236 94 400 156 618 16
57 28 110 26 118 -2 12 -316 -397 -326 -427 -11 -29 -20 2 -25 89 -10 160 -37
410 -57 527 -10 61 -21 155 -25 210 -8 129 -23 224 -90 562 -66 333 -76 374
-125 523 -45 138 -102 258 -146 308 -39 43 -42 33 -13 -35 63 -146 150 -445
183 -628 9 -49 20 -112 25 -140 5 -27 21 -104 36 -170 35 -159 72 -412 81
-557 6 -107 5 -118 -11 -124 -19 -8 -22 -5 -140 132 -64 75 -405 418 -470 474
-22 18 -100 90 -173 159 -125 117 -137 132 -182 221 -27 52 -49 89 -49 81 -3
-62 268 -528 378 -651 67 -75 59 -76 -58 -14 -569 307 -687 374 -737 419 -21
19 -43 35 -48 35 -11 -1 32 -43 199 -195 54 -49 110 -101 125 -115 14 -14 61
-56 103 -94 42 -38 77 -72 77 -76 0 -8 -46 10 -343 134 -87 36 -162 66 -168
66 -6 0 3 -17 19 -37 55 -70 133 -212 186 -340 28 -68 33 -103 14 -103 -30 0
-501 179 -510 193 -4 7 -8 39 -8 73 0 72 -24 165 -75 294 -60 153 -59 160 42
368 54 111 90 152 130 152 15 0 74 11 129 25 79 19 122 36 194 79 57 34 120
62 169 75 84 23 166 27 177 10 3 -6 -16 -31 -45 -56 -28 -24 -51 -51 -51 -59
0 -17 37 -18 54 -1 7 6 73 55 145 107 73 52 210 152 304 222 95 70 195 141
223 157 177 108 500 134 1055 85 67 -6 68 -6 153 43 26 16 44 16 87 2z m2894
-119 c22 -10 81 -58 131 -108 112 -111 141 -130 284 -186 146 -57 267 -110
534 -236 92 -42 207 -122 262 -182 107 -113 157 -243 269 -698 30 -124 78
-315 106 -425 67 -262 78 -313 80 -377 2 -57 -14 -100 -50 -132 -20 -18 -21
-18 -58 10 -21 15 -81 71 -133 125 -137 139 -185 158 -308 120 -83 -25 -146
-76 -223 -184 -28 -40 -55 -76 -60 -81 -5 -5 -17 12 -29 40 -27 61 -111 357
-139 487 l-21 98 21 82 c57 227 138 473 191 583 31 64 107 169 196 271 28 33
52 63 52 67 0 16 -52 3 -82 -21 -159 -131 -278 -389 -385 -833 -14 -58 -28
-111 -32 -118 -10 -18 -21 110 -22 252 0 86 -3 105 -11 86 -11 -27 -16 -582
-9 -1110 2 -190 -1 -361 -8 -430 -19 -195 -14 -507 14 -831 14 -162 32 -332
40 -379 8 -47 15 -85 15 -86 0 -1 -87 -4 -192 -7 -108 -4 -222 -13 -258 -21
-197 -44 -402 -136 -604 -273 -44 -29 -81 -51 -83 -49 -5 4 64 106 155 228
136 184 327 403 506 580 l179 178 -6 52 c-12 114 -81 273 -186 432 -78 117
-75 105 -77 291 -10 878 -19 1169 -50 1549 -9 107 5 99 82 -45 109 -201 145
-258 231 -365 47 -57 87 -104 90 -104 2 0 2 21 -1 48 -4 26 -10 88 -15 137
-10 94 -62 366 -112 590 -31 135 -106 367 -144 445 -12 25 -26 56 -30 70 -11
39 -169 358 -209 424 -20 32 -36 61 -36 63 0 10 96 -9 135 -27z m-2195 -137
c67 -18 368 -135 429 -166 55 -28 104 -84 147 -170 19 -37 59 -104 90 -149 53
-79 56 -86 69 -183 7 -55 21 -200 31 -321 l18 -222 -25 -38 c-13 -22 -44 -81
-69 -131 l-44 -93 -43 0 c-81 0 -526 -100 -585 -131 -11 -6 -21 -9 -23 -7 -2
2 1 68 5 148 4 80 4 285 -1 455 -10 342 -38 596 -86 775 -30 112 -42 171 -42
222 l-1 37 38 -6 c20 -2 62 -12 92 -20z m1684 -180 c3 -54 9 -161 12 -238 l6
-140 -35 -40 -35 -40 -36 19 c-44 23 -56 15 -33 -23 9 -16 17 -34 17 -40 0 -6
-26 -36 -57 -67 -49 -47 -61 -54 -85 -49 -26 6 -27 5 -22 -22 4 -24 -3 -36
-60 -92 -57 -57 -68 -63 -95 -58 -29 6 -29 5 -24 -26 4 -29 -1 -39 -41 -79
-44 -45 -46 -46 -81 -35 -45 13 -54 3 -25 -28 l23 -25 -23 -27 c-14 -16 -53
-58 -88 -94 l-64 -67 -40 16 c-27 11 -44 26 -53 46 -8 17 -28 164 -45 326 -39
363 -38 346 -21 342 31 -7 72 11 85 36 7 15 18 67 25 117 17 127 40 173 125
252 39 36 80 72 92 79 14 10 83 17 220 25 109 5 224 14 254 18 106 16 97 24
104 -86z m30 -479 c8 -20 30 -833 23 -840 -2 -3 -34 2 -69 10 -75 17 -192 30
-472 51 -110 8 -201 17 -204 20 -6 6 147 195 158 195 5 0 19 -4 33 -9 46 -18
57 6 25 52 -11 16 -7 24 34 62 42 40 50 44 73 35 37 -14 37 -14 30 30 -7 39
-5 42 59 108 52 54 67 65 77 55 7 -7 24 -13 37 -13 20 0 23 4 18 20 -3 11 -8
28 -11 38 -4 11 10 34 37 65 37 41 48 47 82 47 36 0 38 1 32 26 -12 48 21 91
38 48z m-834 -712 c0 -21 -18 -42 -36 -42 -18 0 -27 36 -14 60 9 16 15 18 30
10 11 -6 20 -19 20 -28z m315 -122 c105 -11 269 -27 365 -35 96 -9 178 -19
182 -23 9 -10 81 -711 74 -719 -1 -2 -43 4 -92 12 -127 21 -443 55 -619 66
-82 5 -187 12 -232 15 l-81 6 -7 141 c-4 87 -2 186 6 257 6 63 12 135 13 158
2 41 6 47 66 97 57 47 69 53 100 49 19 -2 121 -13 225 -24z m-455 -15 c0 -8
-6 -15 -14 -15 -17 0 -28 14 -19 24 12 12 33 6 33 -9z m-57 -30 c18 -13 12
-21 -83 -124 -56 -61 -104 -111 -106 -111 -3 0 -15 5 -26 11 -30 16 -44 -3
-24 -33 15 -24 15 -27 -12 -64 -49 -66 -65 -77 -96 -63 -35 16 -44 5 -24 -29
19 -32 14 -44 -51 -117 l-33 -38 -30 17 c-35 21 -48 14 -25 -12 41 -45 7 -97
-71 -112 -31 -6 -83 -18 -116 -26 -32 -8 -60 -13 -61 -12 -8 10 -25 356 -20
391 8 47 21 72 76 137 60 71 93 84 359 135 74 14 167 34 205 45 84 23 114 24
138 5z m61 -91 c20 -8 20 -41 0 -119 -23 -96 -44 -253 -44 -341 l0 -81 -107
-6 c-201 -13 -271 -9 -305 14 l-30 22 53 53 c49 49 56 54 87 48 l33 -6 -6 35
c-6 33 -3 40 40 86 40 42 53 50 79 48 29 -2 31 0 31 33 0 23 9 46 25 66 14 17
48 59 75 92 28 34 51 62 52 62 1 0 8 -3 17 -6z m-2681 -306 c3 -13 17 -61 31
-108 32 -101 27 -122 -37 -150 -95 -42 -291 -59 -303 -27 -2 7 -10 52 -18 100
l-13 88 61 32 c96 50 195 84 247 86 20 1 28 -5 32 -21z m-1953 -124 c9 -17 7
-27 -16 -63 l-28 -42 -62 6 c-59 7 -63 6 -78 -18 -19 -29 -11 -58 30 -113 24
-31 25 -38 14 -59 -7 -13 -41 -46 -75 -74 -35 -27 -76 -68 -91 -90 -16 -22
-32 -41 -35 -41 -4 0 -37 48 -74 108 -63 100 -67 110 -62 152 15 124 95 255
197 323 27 19 40 21 40 9 0 -5 -43 -69 -95 -142 -99 -138 -108 -166 -45 -140
36 15 121 106 187 200 26 36 55 75 67 88 l21 23 47 -53 c26 -29 52 -62 58 -74z
m2142 33 c6 -10 11 -61 21 -229 6 -104 -13 -71 -73 125 -29 92 -32 110 -19
118 16 11 61 2 71 -14z m-678 -10 l80 -2 32 -135 c17 -74 113 -465 213 -869
100 -404 180 -736 178 -738 -2 -2 -30 3 -63 12 -100 26 -180 15 -303 -41 -41
-19 -75 -34 -76 -34 -4 0 -186 222 -244 298 -35 46 -88 111 -118 145 -31 34
-81 100 -113 147 -32 47 -81 111 -109 143 -109 124 -193 229 -274 343 -99 139
-195 256 -397 483 -202 228 -215 244 -196 251 14 5 1198 2 1390 -3z m-1326
-170 c29 -32 124 -153 211 -270 87 -117 187 -245 221 -285 34 -41 76 -97 93
-126 18 -29 64 -88 104 -132 40 -43 103 -124 141 -179 119 -171 275 -370 360
-459 93 -98 250 -299 254 -325 2 -17 12 -27 32 -32 38 -10 66 -37 66 -64 0
-12 -11 -49 -25 -83 -26 -63 -118 -227 -134 -236 -5 -3 -34 27 -64 68 -102
135 -280 336 -516 581 -121 126 -152 160 -321 360 -121 142 -242 281 -364 420
-123 139 -397 425 -407 425 -34 0 31 -86 256 -335 49 -55 117 -132 150 -170
33 -38 78 -90 101 -115 85 -95 292 -338 352 -414 59 -75 224 -253 472 -510 58
-60 110 -114 115 -121 6 -6 55 -57 109 -112 l99 -101 -33 -41 c-33 -43 -76
-71 -107 -71 -24 0 -173 195 -173 226 0 17 -6 24 -20 24 -12 0 -35 21 -62 58
-23 31 -88 107 -144 167 -55 61 -141 167 -190 236 -49 70 -181 236 -294 369
-113 133 -254 304 -314 379 -59 75 -167 201 -240 281 -72 79 -141 156 -153
170 l-21 26 51 55 c29 30 72 70 97 89 25 19 51 40 58 47 23 22 30 14 19 -22
-6 -19 -8 -36 -6 -38 2 -2 38 0 79 3 l74 5 7 35 c4 19 10 54 14 77 6 42 6 43
-22 43 -16 0 -46 -9 -68 -20 -21 -11 -39 -19 -40 -17 -1 1 -5 16 -8 33 -5 27
-2 32 26 45 19 8 46 35 66 67 19 29 37 51 41 50 3 -2 30 -29 58 -61z m1950
-159 c57 -181 115 -465 147 -723 4 -27 22 -111 40 -185 18 -74 52 -216 75
-315 23 -99 66 -263 95 -365 94 -324 155 -573 155 -637 0 -96 -31 -118 -188
-131 -173 -14 -191 -7 -210 83 -6 28 -27 118 -46 200 -31 138 -70 309 -147
650 -16 72 -45 198 -64 280 -19 83 -69 301 -111 485 -41 184 -93 412 -115 507
-21 95 -39 179 -39 186 0 19 121 72 229 102 135 37 120 49 179 -137z m2349
-868 c-3 -538 -8 -984 -11 -989 -4 -6 -13 -8 -22 -4 -15 5 -169 197 -280 348
-32 44 -64 87 -71 95 -88 109 -125 176 -138 252 -9 58 -6 714 5 893 5 88 10
206 10 263 l0 102 53 1 c28 1 106 5 172 9 66 3 158 7 204 8 l84 2 -6 -980z
m103 965 c13 -15 10 -814 -6 -1722 -6 -321 -13 -402 -28 -325 -3 15 -8 481
-12 1036 -6 852 -5 1010 7 1017 19 12 25 11 39 -6z m527 -1 l41 -5 6 -102 c3
-56 10 -223 16 -372 6 -148 17 -432 25 -630 8 -198 15 -371 15 -384 l0 -24
-112 6 c-177 10 -378 60 -427 106 l-27 26 -2 684 c-2 524 0 687 10 698 10 12
43 14 212 8 111 -3 220 -8 243 -11z m143 -4 c13 -8 16 -70 21 -417 10 -623 10
-1110 -1 -1093 -5 9 -14 133 -20 275 -6 143 -19 447 -30 675 -24 493 -25 557
-7 563 18 8 21 8 37 -3z m192 -11 c57 -7 109 -15 115 -18 10 -5 14 -83 17
-316 4 -290 16 -481 51 -819 25 -229 29 -208 -75 -312 -50 -49 -95 -90 -100
-92 -19 -7 -80 20 -90 38 -11 20 -25 484 -35 1100 -3 212 -8 395 -11 408 -5
26 -9 26 128 11z m-1512 -51 c0 -24 -5 -151 -11 -283 -12 -266 -13 -795 -3
-1037 7 -167 -1 -197 -29 -115 -26 71 -40 572 -27 942 11 319 23 506 35 525 3
5 13 10 21 10 10 0 14 -12 14 -42z m1761 10 c11 -17 19 -120 29 -378 5 -129
15 -369 21 -532 13 -321 13 -324 -36 -361 l-25 -18 1 173 c0 95 -7 256 -16
358 -9 102 -20 268 -25 370 -4 102 -12 236 -16 299 l-7 114 33 -7 c19 -3 37
-12 41 -18z m-1859 -6 c3 -10 1 -168 -3 -352 -4 -184 -8 -433 -8 -553 -1 -241
-8 -264 -48 -146 -30 90 -52 204 -65 333 -12 129 -3 634 13 683 8 24 18 33 47
41 54 14 59 14 64 -6z m3693 -6 c44 -8 97 -22 117 -30 21 -9 49 -16 64 -16
l27 0 -7 -107 c-4 -60 -10 -111 -15 -116 -4 -4 -25 4 -45 18 -68 46 -53 15 32
-64 45 -42 82 -83 82 -89 0 -7 -7 -29 -15 -49 -21 -50 -20 -58 25 -114 45 -57
44 -51 29 -154 -11 -73 -29 -103 -29 -47 0 37 -49 135 -103 207 -50 66 -50 68
13 102 20 11 36 29 38 41 4 27 -61 92 -152 151 -36 24 -66 49 -66 57 0 7 11
21 25 30 14 9 25 21 25 28 0 13 -101 64 -151 75 -44 10 -135 -2 -259 -34 -149
-39 -244 -78 -324 -137 l-41 -30 -3 58 c-2 37 1 62 10 70 21 20 259 144 308
159 56 19 294 13 415 -9z m-7428 -32 c-3 -20 -14 -42 -24 -50 -21 -16 -65 -14
-70 3 -6 17 57 83 79 83 18 0 20 -5 15 -36z m8143 -304 c54 -28 165 -133 226
-214 50 -65 199 -312 220 -362 8 -19 14 -40 14 -49 0 -14 -4 -14 -37 0 -21 8
-49 28 -62 43 -13 15 -39 45 -59 67 -19 22 -71 87 -116 145 -151 196 -288 310
-374 310 -20 0 -63 -15 -103 -36 -66 -35 -70 -36 -94 -20 -14 9 -25 18 -25 19
0 1 -4 17 -9 35 -8 28 -7 34 13 47 28 19 222 45 301 41 38 -2 77 -12 105 -26z
m-411 -147 c20 -18 57 -93 45 -93 -14 0 -104 73 -104 84 0 30 28 34 59 9z
m266 -145 c48 -14 39 -16 -87 -20 -85 -3 -98 -2 -98 12 0 9 3 20 8 24 9 10
124 0 177 -16z m-2231 -140 c31 -76 56 -143 56 -148 0 -6 -24 -50 -52 -98
l-53 -87 -6 115 c-8 139 -11 365 -5 359 2 -2 29 -66 60 -141z m1466 107 c0 -3
-44 -27 -97 -54 -54 -26 -136 -68 -183 -94 -81 -44 -174 -76 -186 -64 -3 3
-12 23 -19 44 -14 37 -13 39 13 60 28 24 161 72 267 97 58 14 205 22 205 11z
m740 -198 c201 -67 273 -108 329 -191 53 -76 129 -230 154 -312 26 -83 95
-386 121 -536 10 -54 -6 -49 -86 25 l-67 63 -15 105 c-27 186 -90 429 -135
517 -25 49 -148 157 -241 212 -53 32 -128 61 -298 115 -10 4 -10 9 0 26 12 19
20 20 73 16 33 -3 107 -21 165 -40z m-125 -132 c80 -69 195 -190 195 -206 0
-14 -9 -11 -53 20 -23 16 -75 40 -115 54 -81 28 -96 43 -143 139 -27 57 -30
69 -19 83 12 14 15 14 34 -3 12 -10 57 -50 101 -87z m-3234 -416 c90 -52 239
-124 354 -169 61 -23 118 -51 128 -62 12 -15 17 -38 17 -85 l0 -64 -76 -98
-75 -98 -107 -7 c-59 -3 -152 -7 -207 -8 l-100 -2 -8 289 c-7 286 -6 335 13
335 5 0 33 -14 61 -31z m-2736 -75 c32 -17 43 -30 57 -70 10 -27 17 -71 15
-99 -2 -49 -3 -50 -40 -59 -46 -12 -53 -4 -62 69 -7 53 -36 128 -53 139 -6 3
-68 -13 -137 -36 l-127 -43 -24 29 -25 28 21 15 c12 8 44 23 73 34 74 27 244
23 302 -7z m-103 -120 c30 -86 24 -159 -26 -292 -24 -64 -52 -142 -61 -172
-38 -118 -145 -270 -191 -270 -31 0 -101 26 -136 52 l-31 22 36 31 c109 94
276 382 285 491 5 59 -6 79 -39 69 -23 -8 -46 22 -33 43 11 16 152 82 169 78
5 -1 17 -25 27 -52z m805 -64 c49 -11 97 -22 106 -25 20 -8 27 -37 27 -122 l0
-72 43 -12 c23 -6 80 -23 127 -38 l85 -26 28 -55 c28 -53 29 -59 23 -160 -12
-206 -70 -334 -178 -387 -33 -17 -66 -22 -146 -25 -56 -2 -102 0 -102 3 0 4 8
17 18 29 13 17 37 24 107 35 117 17 140 29 160 77 49 125 75 357 46 425 -17
42 -114 93 -177 93 -47 0 -43 -9 -59 127 -4 29 -14 58 -23 66 -17 15 -146 57
-174 57 -9 0 -21 7 -28 15 -17 21 4 20 117 -5z m2621 -12 c-5 -32 -28 -35 -28
-4 0 17 5 26 16 26 10 0 14 -7 12 -22z m-2625 -78 l57 -11 0 -75 c0 -69 2 -78
28 -104 18 -17 47 -32 80 -39 116 -25 146 -62 146 -181 0 -91 -30 -189 -76
-244 -44 -54 -97 -76 -184 -76 l-71 0 -11 -80 c-14 -96 -32 -135 -68 -144 -29
-8 -134 11 -134 23 0 4 13 20 30 34 37 33 45 63 30 116 -9 35 -18 45 -48 58
-54 23 -149 14 -173 -16 -23 -28 -24 -79 -5 -126 20 -47 1 -52 -57 -15 -49 31
-57 47 -78 165 -10 57 -18 75 -41 95 -111 94 -102 81 -106 162 -5 102 13 211
48 286 34 72 54 79 76 25 l16 -36 -40 -37 c-94 -89 -75 -208 41 -265 51 -24
55 -29 61 -68 9 -56 39 -105 74 -118 16 -7 79 -9 157 -7 110 4 136 8 170 26
76 41 105 78 105 133 0 20 -27 145 -60 278 -33 133 -60 246 -60 252 0 6 8 8
18 5 9 -2 43 -10 75 -16z m-633 -56 c0 -3 -11 -20 -25 -38 -28 -37 -51 -90
-71 -161 -18 -64 -30 -256 -18 -278 6 -10 40 -48 76 -86 52 -53 68 -77 73
-107 18 -114 53 -177 118 -211 73 -37 217 -58 343 -48 l93 7 23 36 23 37 3
-38 c4 -50 -24 -133 -51 -152 -12 -8 -42 -15 -67 -15 -57 0 -370 64 -407 83
-63 33 -92 94 -93 198 0 57 -4 72 -29 106 -16 22 -49 52 -73 66 -56 33 -76 62
-89 133 -18 99 19 311 73 419 12 22 26 43 32 47 13 9 66 11 66 2z m108 -274
c-6 -59 -12 -68 -33 -50 -28 23 -10 100 24 100 10 0 12 -12 9 -50z m2842 22
c0 -5 -39 -62 -86 -128 -47 -65 -99 -146 -116 -178 -31 -62 -48 -63 -48 -4 0
30 -35 128 -68 193 -11 22 -23 59 -27 83 l-7 42 176 0 c97 0 176 -4 176 -8z
m-384 -92 c82 -224 93 -265 93 -337 1 -77 -11 -123 -31 -123 -7 0 -35 39 -62
86 l-48 86 -6 173 c-7 235 3 255 54 115z m-2826 -111 c0 -37 -31 -88 -79 -130
-66 -59 -163 -126 -186 -131 -40 -6 -20 30 40 74 33 24 94 81 135 126 41 45
78 82 83 82 4 0 7 -9 7 -21z m65 -147 c27 -20 125 -135 125 -147 0 -17 -25
-43 -108 -114 l-64 -54 -31 18 c-18 11 -70 43 -116 74 -67 43 -81 56 -70 65
142 108 186 142 197 153 15 14 51 17 67 5z m4982 -54 c14 -19 47 -137 40 -144
-8 -9 -137 28 -137 39 0 17 65 117 76 117 6 0 16 -6 21 -12z m-3691 -37 c5 -5
54 -32 109 -61 189 -99 235 -125 235 -132 0 -4 -12 -6 -27 -3 -16 2 -149 10
-298 16 -148 6 -271 13 -273 14 -2 2 23 10 55 19 97 26 125 45 153 103 26 55
30 58 46 44z m-701 -71 c0 -33 -2 -35 -38 -38 -44 -4 -67 11 -67 43 0 28 13
34 65 32 39 -2 40 -3 40 -37z m-424 -151 c16 -34 28 -63 25 -66 -2 -3 -53 -2
-112 2 l-107 8 29 23 c80 63 120 93 126 93 4 1 22 -26 39 -60z"/>
<path d="M5380 8975 c0 -35 21 -128 31 -139 5 -6 9 11 9 42 0 29 3 52 6 52 3
0 23 -13 44 -30 41 -32 60 -38 60 -17 0 14 -123 117 -140 117 -5 0 -10 -11
-10 -25z"/>
<path d="M6417 8493 c-4 -3 -7 -45 -7 -92 0 -100 17 -145 81 -221 40 -48 69
-64 69 -38 0 6 -19 34 -42 61 -65 77 -78 110 -78 197 0 72 -9 108 -23 93z"/>
<path d="M5110 8392 c0 -16 11 -66 25 -112 30 -101 31 -116 5 -155 -11 -16
-20 -36 -20 -43 0 -22 23 -8 48 28 23 35 28 87 13 136 -5 16 -19 62 -30 102
-22 74 -41 94 -41 44z"/>
<path d="M6170 8171 c0 -6 13 -43 29 -85 l29 -74 -38 -37 c-64 -63 -155 -77
-246 -39 -39 16 -44 4 -12 -26 53 -49 164 -49 244 1 54 35 69 33 79 -12 8 -37
3 -42 -71 -58 -67 -15 -61 -33 10 -31 74 2 76 2 76 -20 0 -25 -24 -35 -104
-45 -121 -14 -112 -31 23 -40 l98 -7 7 -61 c3 -33 6 -92 6 -131 0 -80 8 -119
22 -110 5 3 8 74 7 166 l-2 161 54 22 c104 42 175 99 162 131 -8 21 -14 18
-105 -36 -84 -51 -118 -61 -118 -36 0 14 21 24 93 46 39 12 51 40 17 40 -11 0
-43 -9 -70 -19 -37 -14 -52 -16 -54 -8 -2 7 -12 34 -21 60 l-17 49 33 34 c48
50 85 59 136 34 52 -25 76 -26 71 -2 -4 24 -85 62 -133 62 -27 0 -53 -8 -77
-25 -20 -14 -39 -25 -42 -25 -2 0 -18 29 -35 65 -26 57 -51 84 -51 56z"/>
<path d="M5154 7931 c-28 -12 -85 -82 -82 -100 6 -29 25 -20 57 25 39 53 39
53 196 4 369 -115 358 -113 398 -76 36 34 80 123 65 132 -7 5 -22 -6 -37 -26
-14 -19 -35 -45 -47 -59 l-21 -25 -103 28 c-57 15 -149 43 -205 61 -113 36
-189 49 -221 36z"/>
<path d="M5797 7803 c-19 -37 -22 -53 -7 -53 13 0 32 48 27 69 -2 11 -8 6 -20
-16z"/>
<path d="M5290 7789 c-63 -17 -90 -31 -90 -46 0 -12 8 -14 38 -10 20 3 76 9
124 13 93 7 136 25 108 44 -19 12 -133 11 -180 -1z"/>
<path d="M5894 7774 c-8 -32 19 -264 39 -342 8 -29 20 -59 26 -65 17 -17 13
45 -10 148 -11 50 -23 132 -26 183 -6 95 -17 124 -29 76z"/>
<path d="M5275 7714 c-106 -25 -163 -60 -138 -85 4 -4 49 -24 98 -45 66 -27
104 -37 140 -36 56 0 139 29 190 63 41 29 71 77 57 91 -29 29 -244 36 -347 12z
m311 -33 c-10 -16 -154 -71 -198 -76 -27 -3 -61 1 -93 12 -58 21 -67 46 -19
51 24 2 35 -3 48 -23 14 -22 24 -26 54 -23 29 2 41 10 57 35 19 31 22 32 88
33 38 0 66 -4 63 -9z"/>
<path d="M5880 7360 c0 -15 5 -20 18 -18 9 2 17 10 17 18 0 8 -8 16 -17 18
-13 2 -18 -3 -18 -18z"/>
<path d="M6225 7224 c-248 -23 -291 -31 -530 -96 -143 -38 -353 -107 -360
-118 -21 -35 234 -176 342 -189 143 -17 456 30 580 88 36 17 96 53 132 80 76
57 183 175 175 195 -10 27 -61 38 -179 41 -66 2 -138 1 -160 -1z m57 -41 c21
-18 24 -66 6 -81 -7 -5 -64 -15 -127 -21 -63 -7 -118 -14 -123 -17 -13 -9 3
-26 18 -20 8 3 91 9 184 12 151 6 170 5 170 -9 0 -23 -65 -73 -147 -113 -120
-58 -413 -112 -549 -101 -65 5 -174 49 -182 73 -5 20 28 24 54 7 22 -14 27
-14 35 -2 5 8 9 19 9 26 0 18 20 27 89 38 36 6 66 16 69 23 6 19 -170 11 -185
-8 -9 -12 -17 -13 -42 -3 -29 11 -31 10 -31 -13 0 -39 -40 -52 -90 -29 -21 10
-47 26 -56 36 -14 16 -14 18 3 27 70 36 575 166 706 181 121 14 169 13 189 -6z
m214 -3 c29 -12 30 -23 3 -61 -19 -27 -25 -29 -84 -29 -90 0 -95 3 -95 62 l0
51 76 -7 c41 -4 86 -11 100 -16z"/>
<path d="M6175 6820 c-79 -36 -324 -89 -417 -90 -26 -1 -30 -3 -16 -10 21 -13
217 3 332 26 89 17 161 50 161 73 0 21 -16 21 -60 1z"/>
<path d="M1660 3192 c-38 -15 -49 -26 -75 -74 -39 -75 -29 -88 65 -88 77 0 73
-5 85 113 8 77 5 79 -75 49z m38 -79 l-3 -48 -48 -3 -48 -3 20 40 c21 40 44
60 69 61 9 0 12 -13 10 -47z"/>
<path d="M1828 2950 c-19 -12 -58 -93 -58 -121 0 -17 8 -19 75 -19 l75 0 2 60
c0 33 1 66 2 73 1 15 -72 21 -96 7z m71 -32 c19 -51 -13 -92 -67 -86 -23 3
-27 7 -25 32 3 34 39 76 65 76 10 0 22 -10 27 -22z"/>
<path d="M1986 2748 c-32 -19 -44 -35 -63 -83 -13 -32 -23 -61 -23 -62 0 -2
36 -3 80 -3 56 0 82 4 85 13 3 6 6 44 8 82 2 68 1 70 -23 73 -14 1 -43 -8 -64
-20z m64 -50 c0 -43 -10 -57 -45 -63 -46 -9 -61 6 -45 44 14 35 34 50 68 51
18 0 22 -5 22 -32z"/>
<path d="M2202 2567 l-52 -11 -22 -68 c-16 -49 -19 -71 -11 -76 6 -4 40 -5 75
-2 l63 5 6 40 c4 22 10 59 14 83 8 47 13 45 -73 29z m38 -49 c0 -42 -12 -65
-36 -77 -30 -13 -35 -13 -52 -2 -11 7 -11 14 1 44 23 55 87 81 87 35z"/>
<path d="M2411 2340 c-43 -10 -55 -24 -80 -87 l-21 -53 44 0 c24 0 57 -3 74
-6 33 -7 34 -5 47 104 8 58 6 59 -64 42z m27 -58 c5 -35 -15 -62 -48 -62 -39
0 -41 30 -5 66 29 29 49 27 53 -4z"/>
<path d="M2552 2093 c-39 -4 -44 -8 -67 -53 -39 -77 -37 -80 49 -80 l74 0 11
44 c16 67 14 96 -6 94 -10 -1 -37 -3 -61 -5z m48 -47 c0 -34 -26 -56 -66 -56
-39 0 -44 16 -18 55 12 19 25 25 50 25 29 0 34 -3 34 -24z"/>
<path d="M2762 1870 c-51 -8 -62 -19 -90 -87 l-21 -53 78 0 78 0 7 38 c8 51 8
100 -1 105 -5 2 -27 0 -51 -3z m24 -45 c9 -22 -4 -65 -21 -72 -25 -9 -65 6
-65 25 0 47 71 86 86 47z"/>
<path d="M2922 1672 c-40 -16 -44 -20 -62 -81 -11 -36 -17 -67 -15 -69 2 -3
36 -7 74 -10 l69 -5 12 56 c6 31 10 71 8 89 -4 39 -22 44 -86 20z m44 -86 c-6
-32 -10 -36 -37 -36 -34 0 -46 19 -29 50 13 24 51 42 64 30 5 -5 5 -25 2 -44z"/>
<path d="M3432 3493 c-18 -4 -40 -39 -109 -179 l-86 -174 13 -60 c7 -34 16
-62 19 -64 10 -6 231 418 231 442 0 17 -29 46 -42 41 -2 -1 -13 -4 -26 -6z"/>
<path d="M3234 3430 c-36 -8 -54 -18 -54 -30 0 -13 83 -60 107 -60 21 0 43 36
36 58 -8 22 -56 39 -89 32z"/>
<path d="M3507 3404 c-13 -13 -7 -52 9 -58 23 -9 24 -8 24 12 0 23 -23 55 -33
46z"/>
<path d="M3190 3348 c0 -11 32 -153 35 -156 9 -9 25 12 41 54 l18 47 -35 28
c-28 23 -59 37 -59 27z"/>
<path d="M3460 3311 c-20 -39 -11 -56 47 -91 79 -48 77 -48 70 1 -4 33 -14 52
-41 76 -41 38 -61 41 -76 14z"/>
<path d="M3401 3179 c-17 -28 -31 -54 -31 -58 0 -10 126 -121 137 -121 12 0
65 128 58 139 -8 14 -112 91 -122 91 -5 0 -24 -23 -42 -51z"/>
<path d="M3577 3090 c-32 -74 -70 -157 -138 -302 -62 -130 -70 -155 -64 -186
4 -20 11 -45 17 -55 14 -28 30 -9 98 117 82 152 73 142 103 112 26 -26 67 -35
67 -15 0 25 -52 326 -59 344 -8 18 -10 16 -24 -15z"/>
<path d="M3311 3035 c-40 -69 -39 -76 33 -139 36 -32 66 -62 66 -67 0 -21 -30
-6 -61 31 -59 69 -64 48 -19 -79 16 -46 32 -86 34 -89 3 -2 33 52 67 121 54
108 61 127 48 138 -24 23 -123 105 -136 112 -6 4 -20 -7 -32 -28z"/>
<path d="M3537 2703 c-34 -66 -33 -68 37 -106 72 -38 75 -37 95 25 15 46 13
50 -45 82 -59 33 -70 33 -87 -1z"/>
<path d="M3490 2600 c0 -6 -18 -38 -40 -71 -42 -63 -54 -124 -26 -135 8 -3 45
3 83 13 65 17 69 20 90 63 l23 45 -53 47 c-50 46 -77 59 -77 38z"/>
<path d="M3650 2524 c-31 -72 -26 -89 21 -72 24 8 29 16 29 41 0 41 -10 77
-21 77 -4 0 -17 -21 -29 -46z"/>
<path d="M3724 2156 c-28 -13 -79 -27 -113 -31 -33 -4 -63 -10 -65 -14 -4 -6
156 -131 168 -131 6 0 68 191 64 196 -2 2 -27 -7 -54 -20z"/>
<path d="M3782 2108 c-7 -7 -12 -20 -12 -29 0 -30 -70 -221 -121 -327 -48
-101 -48 -104 -37 -152 12 -52 24 -63 35 -32 3 9 46 99 94 200 93 192 100 217
77 296 -14 51 -21 59 -36 44z"/>
<path d="M3490 2078 c0 -25 15 -88 31 -128 10 -26 104 -90 132 -90 14 0 37 47
37 75 0 9 -169 153 -192 163 -5 2 -8 -7 -8 -20z"/>
<path d="M3830 1893 c-11 -24 -48 -108 -106 -239 l-13 -32 54 -36 c69 -45 94
-49 112 -16 13 24 11 27 -43 78 -32 28 -54 55 -51 58 3 4 28 -8 55 -25 54 -34
82 -39 82 -15 0 14 -19 94 -51 217 -12 44 -21 47 -39 10z"/>
<path d="M3540 1877 c0 -24 31 -152 39 -166 12 -19 29 -6 46 36 21 50 19 60
-17 94 -45 42 -68 54 -68 36z"/>
<path d="M3673 1567 c-32 -47 -39 -90 -17 -111 30 -30 120 -96 132 -96 6 0 20
29 32 65 17 51 19 69 10 80 -17 21 -116 95 -126 95 -5 0 -19 -15 -31 -33z"/>
<path d="M3860 1413 c-40 -103 -87 -210 -103 -238 -39 -66 -47 -89 -37 -106 5
-7 11 -11 13 -9 5 6 210 367 226 398 14 26 6 102 -13 128 -10 13 -24 -15 -86
-173z"/>
<path d="M3661 1383 c1 -41 33 -230 40 -237 4 -4 12 8 19 26 6 18 21 54 32 80
12 25 18 53 15 60 -3 8 -28 34 -56 57 l-51 43 1 -29z"/>
<path d="M3950 1348 c-11 -18 -20 -38 -20 -45 0 -17 41 -43 68 -43 22 0 24 3
17 36 -9 52 -23 84 -35 84 -6 0 -19 -15 -30 -32z"/>
<path d="M3885 1240 c-31 -35 -22 -67 36 -126 56 -56 85 -66 113 -38 35 34 20
68 -52 122 -21 15 -39 29 -42 32 -27 28 -37 29 -55 10z"/>
<path d="M3796 1091 c-20 -27 -36 -51 -36 -55 0 -3 36 -5 80 -4 44 0 80 5 80
10 0 13 -70 98 -80 98 -5 0 -24 -22 -44 -49z"/>
<path d="M4210 1301 c-24 -7 -25 -9 -23 -97 2 -82 4 -91 28 -111 31 -27 55
-29 100 -7 45 21 68 59 68 111 0 80 -83 130 -173 104z m82 -68 c22 -20 23 -41
1 -65 -27 -30 -51 -23 -59 17 -11 62 17 85 58 48z"/>
<path d="M7270 614 c0 -5 16 -35 35 -67 19 -32 35 -62 35 -66 0 -19 -349 -109
-525 -136 -131 -20 -481 -59 -723 -81 -134 -13 -187 -21 -176 -27 40 -22 640
28 929 78 108 18 311 74 415 113 81 30 100 31 100 2 0 -48 -192 -148 -335
-175 -110 -20 -278 -61 -325 -79 -19 -8 -84 -38 -145 -67 l-110 -54 50 -3 c41
-2 92 12 284 77 129 45 269 90 310 101 86 24 184 74 237 122 20 18 41 33 47
33 12 0 35 -60 36 -96 1 -15 -8 -33 -21 -45 -74 -63 -123 -96 -207 -140 l-94
-49 41 -3 c34 -3 54 4 109 37 38 22 95 65 128 95 33 30 62 52 65 48 3 -4 18
-46 34 -94 17 -57 32 -88 42 -88 21 0 18 18 -31 167 -49 150 -142 347 -181
384 -13 12 -24 18 -24 13z"/>
<path d="M3100 453 c0 -25 264 -119 466 -167 351 -83 553 -104 1019 -107 347
-2 375 0 565 41 124 27 170 41 170 52 0 5 -21 6 -47 3 -27 -3 -104 -12 -173
-20 -145 -17 -333 -19 -545 -5 -82 5 -249 14 -370 20 -241 12 -446 32 -570 56
-113 22 -352 83 -405 104 -60 23 -110 34 -110 23z"/>
<path d="M9395 60 c-4 -6 12 -10 40 -10 28 0 44 4 40 10 -3 6 -21 10 -40 10
-19 0 -37 -4 -40 -10z"/>
</g>
</svg>
